HIERARCHY
ROOT Hips
{
	OFFSET -0.001795 -0.223333 0.028219
	CHANNELS 6 Xposition Yposition Zposition Zrotation Yrotation Xrotation 
	JOINT LeftUpLeg
	{
		OFFSET 0.069520 -0.091406 -0.006815
		CHANNELS 3 Zrotation Yrotation Xrotation
		JOINT LeftLeg
		{
			OFFSET 0.034277 -0.375199 -0.004496
			CHANNELS 3 Zrotation Yrotation Xrotation
			JOINT LeftFoot
			{
				OFFSET -0.013596 -0.397961 -0.043693
				CHANNELS 3 Zrotation Yrotation Xrotation
				JOINT LeftToe
				{
					OFFSET 0.026358 -0.055791 0.119288
					CHANNELS 3 Zrotation Yrotation Xrotation
					End Site
					{
						OFFSET 0.000000 0.000000 0.000000
					}
				}
			}
		}
	}
	JOINT RightUpLeg
	{
		OFFSET -0.067670 -0.090522 -0.004320
		CHANNELS 3 Zrotation Yrotation Xrotation
		JOINT RightLeg
		{
			OFFSET -0.038290 -0.382569 -0.008850
			CHANNELS 3 Zrotation Yrotation Xrotation
			JOINT RightFoot
			{
				OFFSET 0.015774 -0.398415 -0.042312
				CHANNELS 3 Zrotation Yrotation Xrotation
				JOINT RightToe
				{
					OFFSET -0.025372 -0.048144 0.123348
					CHANNELS 3 Zrotation Yrotation Xrotation
					End Site
					{
						OFFSET 0.000000 0.000000 0.000000
					}
				}
			}
		}
	}
	JOINT Spine
	{
		OFFSET -0.002533 0.108963 -0.026696
		CHANNELS 3 Zrotation Yrotation Xrotation
		JOINT Spine1
		{
			OFFSET 0.005487 0.135180 0.001092
			CHANNELS 3 Zrotation Yrotation Xrotation
			JOINT Spine2
			{
				OFFSET 0.001457 0.052922 0.025425
				CHANNELS 3 Zrotation Yrotation Xrotation
				JOINT Neck
				{
					OFFSET -0.002778 0.213870 -0.042857
					CHANNELS 3 Zrotation Yrotation Xrotation
					JOINT Head
					{
						OFFSET 0.005152 0.064970 0.051349
						CHANNELS 3 Zrotation Yrotation Xrotation
						End Site
						{
							OFFSET 0.000000 0.000000 0.000000
						}
					}
				}
				JOINT LeftShoulder
				{
					OFFSET 0.078845 0.121749 -0.034090
					CHANNELS 3 Zrotation Yrotation Xrotation
					JOINT LeftArm
					{
						OFFSET 0.090977 0.030469 -0.008868
						CHANNELS 3 Zrotation Yrotation Xrotation
						JOINT LeftForeArm
						{
							OFFSET 0.259612 -0.012772 -0.027456
							CHANNELS 3 Zrotation Yrotation Xrotation
							JOINT LeftHand
							{
								OFFSET 0.249234 0.008986 -0.001171
								CHANNELS 3 Zrotation Yrotation Xrotation
								End Site
								{
									OFFSET 0.000000 0.000000 0.000000
								}
							}
						}
					}
				}
				JOINT RightShoulder
				{
					OFFSET -0.081759 0.118833 -0.038615
					CHANNELS 3 Zrotation Yrotation Xrotation
					JOINT RightArm
					{
						OFFSET -0.096012 0.032551 -0.009143
						CHANNELS 3 Zrotation Yrotation Xrotation
						JOINT RightForeArm
						{
							OFFSET -0.253742 -0.013329 -0.021401
							CHANNELS 3 Zrotation Yrotation Xrotation
							JOINT RightHand
							{
								OFFSET -0.255298 0.007772 -0.005559
								CHANNELS 3 Zrotation Yrotation Xrotation
								End Site
								{
									OFFSET 0.000000 0.000000 0.000000
								}
							}
						}
					}
				}
			}
		}
	}
}
MOTION
Frames: 5
Frame Time: 0.050000
0.173864 0.952327 0.585960 0.747168 -17.697211 -5.326281 -0.380131 0.085204 0.743302 -2.760917 0.606407 9.213110 7.695130 15.365379 16.510481 0.000000 0.000000 0.000000 -2.613231 0.669177 -7.073816 -0.625254 1.072116 13.546916 1.761330 -6.038184 15.660774 0.000000 0.000000 0.000000 7.297780 -1.531749 34.725830 -7.548545 2.088442 -28.001074 -3.696335 3.174786 32.624132 14.213714 -6.763785 -33.694142 0.000000 0.000000 0.000000 -18.340624 -17.323583 10.033143 -51.363782 -18.458575 -1.598108 -1.448543 -51.431489 4.851821 0.000000 0.000000 0.000000 31.047998 4.449633 -1.625804 52.839856 10.238379 -3.123494 16.929304 51.223322 10.229211 0.000000 0.000000 0.000000 
0.167160 0.943230 0.586438 0.892850 -17.710717 -6.462232 0.506676 0.059353 0.226659 -3.784640 1.043071 12.668976 7.925278 15.900433 14.038567 0.000000 0.000000 0.000000 -2.058491 0.772064 -8.131423 -0.853657 1.622035 17.927985 0.813838 -6.371458 12.977545 0.000000 0.000000 0.000000 7.527893 -1.560311 36.470936 -7.909397 2.189191 -27.278647 -3.960212 2.739305 32.433897 13.996410 -6.941737 -32.524125 0.000000 0.000000 0.000000 -17.970754 -18.507083 10.539929 -48.529238 -18.525414 -1.640619 3.610003 -54.750255 2.563092 0.000000 0.000000 0.000000 31.474556 5.528266 -1.010351 51.126770 12.009305 -2.253281 12.153991 54.581027 8.510782 0.000000 0.000000 0.000000 
0.160745 0.930611 0.587114 1.003676 -17.820813 -7.861676 1.534275 -0.008187 -1.068695 -4.891959 1.808153 18.106448 8.193050 16.579130 11.068829 0.000000 0.000000 0.000000 -1.850847 0.882023 -9.193427 -0.272959 2.129617 22.896900 -0.363929 -6.830892 9.590971 0.000000 0.000000 0.000000 7.546031 -1.502034 38.431996 -7.861916 2.183357 -27.366847 -4.291539 2.717542 32.646080 14.004898 -7.024709 -32.297318 0.000000 0.000000 0.000000 -18.684117 -19.417554 11.092690 -45.023544 -18.834067 -1.686804 9.150305 -57.546787 -0.432460 0.000000 0.000000 0.000000 32.159530 6.095733 -0.598514 50.256237 14.236708 -1.333213 8.267055 57.540418 7.017646 0.000000 0.000000 0.000000 
0.155333 0.917235 0.587687 1.367659 -17.189806 -8.915388 1.995067 -0.083221 -2.393492 -5.467891 2.439140 22.685726 8.129484 16.770870 7.748569 0.000000 0.000000 0.000000 -1.790379 0.998769 -10.321472 0.044629 2.641156 27.380295 -1.897185 -8.037710 6.098037 0.000000 0.000000 0.000000 7.482715 -1.535850 39.436167 -8.654792 2.439133 -25.942713 -4.401916 1.566386 31.742126 14.142717 -7.161137 -32.253478 0.000000 0.000000 0.000000 -19.107501 -20.599977 11.867534 -42.709151 -18.762441 -1.691730 15.537767 -59.184983 -4.125888 0.000000 0.000000 0.000000 32.776759 7.000709 -0.357024 49.625407 15.673802 -0.504229 2.943890 59.206888 4.082855 0.000000 0.000000 0.000000 
0.150762 0.909889 0.588532 1.641229 -16.579861 -9.335284 2.139152 -0.123744 -3.067488 -5.547397 2.663216 24.857800 7.993530 16.680418 5.846543 0.000000 0.000000 0.000000 -1.954184 1.056097 -10.970472 0.594978 2.756199 29.740898 -2.813183 -8.992771 4.198111 0.000000 0.000000 0.000000 6.997018 -1.455542 39.611568 -9.070394 2.576178 -25.621019 -4.627470 1.592832 31.993305 14.356702 -7.157879 -32.689905 0.000000 0.000000 0.000000 -19.133413 -21.270857 12.136267 -41.663884 -19.433674 -1.475755 20.502471 -59.883505 -7.088500 0.000000 0.000000 0.000000 33.517082 7.245153 -0.104524 50.023567 16.757979 -0.073623 -0.392678 59.751912 2.385326 0.000000 0.000000 0.000000 
